<svg xmlns="http://www.w3.org/2000/svg" 
  xmlns:xlink="http://www.w3.org/1999/xlink" viewBox="0 0 510.81 216.79">
  <defs>
    <style>
    @font-face {
      font-family: 'Alright Sans';
      src: url('/static/AlrightSans-Bold.woff');
    }
    .about-header{  
      fill:url(#linear-gradient);}
      .cls-2{fill:url(#linear-gradient-2);}
      .cls-3{fill:url(#linear-gradient-3);}
      .cls-4{fill:url(#linear-gradient-4);}
      .cls-5{fill:url(#linear-gradient-5);}
      .cls-6{fill:url(#linear-gradient-6);}
      .cls-7{fill:url(#linear-gradient-7);}
      .cls-8{fill:url(#linear-gradient-8);}
      .cls-9{fill:url(#linear-gradient-9);}
      .about-header0{fill:url(#linear-gradient-10);}
      .about-header1{fill:url(#linear-gradient-11);}
      .about-header2{fill:url(#linear-gradient-12);}
      .about-header3{fill:url(#linear-gradient-13);}
      .about-header4{fill:url(#linear-gradient-14);}
      .about-header5{fill:url(#linear-gradient-15);}
      .about-header6{font-size:50px;fill:none;stroke:#fff;stroke-miterlimit:10;font-family:Alright Sans;font-weight: 500;}.about-header7{letter-spacing:-0.03em;}.about-header8{letter-spacing:-0.02em;}.about-header9{letter-spacing:-0.01em;}.cls-20{letter-spacing:-0.01em;}.cls-21{letter-spacing:0em;}.cls-22{letter-spacing:-0.05em;}.cls-23{letter-spacing:-0.09em;}.cls-24{letter-spacing:-0.07em;
      
  </style>
    }</style>
    <linearGradient id="linear-gradient" x1="328.72" y1="171.53" x2="338.17" y2="171.53" gradientUnits="userSpaceOnUse">
      <stop offset="0" stop-color="#000" />
      <stop offset="0.80" stop-color="#000" />
      <stop offset="0.80" stop-color="#0d0b0b" />
    </linearGradient>
    <linearGradient id="linear-gradient-2" x1="109.32" y1="95" x2="121.27" y2="95" xlink:href="#linear-gradient"/>
    <linearGradient id="linear-gradient-3" x1="408.47" y1="30.82" x2="424.02" y2="30.82" xlink:href="#linear-gradient"/>
    <linearGradient id="linear-gradient-4" x1="429.37" y1="100.17" x2="438.82" y2="100.17" xlink:href="#linear-gradient"/>
    <linearGradient id="linear-gradient-5" x1="181.62" y1="171.53" x2="191.07" y2="171.53" xlink:href="#linear-gradient"/>
    <linearGradient id="linear-gradient-6" x1="374.92" y1="28.82" x2="384.37" y2="28.82" xlink:href="#linear-gradient"/>
    <linearGradient id="linear-gradient-7" x1="109.32" y1="109.1" x2="122.62" y2="109.1" xlink:href="#linear-gradient"/>
    <linearGradient id="linear-gradient-8" x1="75.82" y1="100.17" x2="85.27" y2="100.17" xlink:href="#linear-gradient"/>
    <linearGradient id="linear-gradient-9" x1="432.17" y1="171.53" x2="441.62" y2="171.53" xlink:href="#linear-gradient"/>
    <linearGradient id="linear-gradient-10" x1="264.42" y1="37.74" x2="277.72" y2="37.74" xlink:href="#linear-gradient"/>
    <linearGradient id="linear-gradient-11" x1="210.92" y1="30.79" x2="231.87" y2="30.79" xlink:href="#linear-gradient"/>
    <linearGradient id="linear-gradient-12" x1="0" y1="108.39" x2="510.71" y2="108.39" xlink:href="#linear-gradient"/>
    <linearGradient id="linear-gradient-13" x1="264.42" y1="23.64" x2="276.37" y2="23.64" xlink:href="#linear-gradient"/>
    <linearGradient id="linear-gradient-14" x1="141.87" y1="102.15" x2="162.82" y2="102.15" xlink:href="#linear-gradient"/>
    <linearGradient id="linear-gradient-15" x1="74.22" y1="30.79" x2="95.17" y2="30.79" xlink:href="#linear-gradient"/>
  </defs>
  <title>about-header</title>
  <g id="Layer_2" data-name="Layer 2">
    <g id="Layer_1-2" data-name="Layer 1">
      <polygon class="about-header" points="333.37 164.43 328.72 178.63 338.17 178.63 333.47 164.43 333.37 164.43"/>
      <path class="cls-2" d="M121.27,94.92c0-2.45-1.8-4.2-5.35-4.2h-6.6v8.55h6.6C119.47,99.27,121.27,97.52,121.27,94.92Z"/>
      <path class="cls-3" d="M413,19.47h-4.5v22.7H413c7.35,0,11-4.35,11-11.45C424,23.87,420.07,19.47,413,19.47Z"/>
      <polygon class="cls-4" points="434.12 93.07 434.02 93.07 429.37 107.27 438.82 107.27 434.12 93.07"/>
      <polygon class="cls-5" points="186.27 164.43 181.62 178.63 191.07 178.63 186.37 164.43 186.27 164.43"/>
      <polygon class="cls-6" points="379.57 21.72 374.92 35.92 384.37 35.92 379.67 21.72 379.57 21.72"/>
      <path class="cls-7" d="M117.07,104.57h-7.75v9.05h7.75c3.4,0,5.55-1.55,5.55-4.6S120.42,104.57,117.07,104.57Z"/>
      <polygon class="cls-8" points="80.47 93.07 75.82 107.27 85.27 107.27 80.57 93.07 80.47 93.07"/>
      <polygon class="cls-9" points="436.82 164.43 432.17 178.63 441.62 178.63 436.92 164.43 436.82 164.43"/>
      <path class="about-header0" d="M277.72,37.67c0-3-2.2-4.45-5.55-4.45h-7.75v9.05h7.75C275.57,42.27,277.72,40.72,277.72,37.67Z"/>
      <path class="about-header1" d="M221.37,42.52c6.15,0,10.5-4.65,10.5-11.8s-4.3-11.65-10.5-11.65-10.45,4.65-10.45,11.65S215.27,42.52,221.37,42.52Z"/>
      <path class="about-header2" d="M0,0V216.79H510.71V0ZM435.62,21V13.32h7.6v5.85c0,5.2-2.1,7.85-6.45,9.3l-1.5-2.8c2.4-.9,3.65-2.6,3.65-4.7Zm-75.05,77.2,8.2-13.5h8.65l-13.1,21v14h-7.65v-14l-13.1-21h8.75l8.15,13.5Zm-26.95-75c0-5.75,4.75-10.4,12.85-10.4a28.83,28.83,0,0,1,12.6,2.95l-2.8,6a21.2,21.2,0,0,0-9.45-2.3c-3.35,0-5.35,1.6-5.35,3.7,0,6.45,18.9,1.9,18.9,15.4,0,5.9-4.5,10.5-13.5,10.5a28,28,0,0,1-13.95-3.85l3.6-5.9a20.85,20.85,0,0,0,10.3,3.15c3.75,0,5.7-1.55,5.7-3.8C352.52,32,333.62,36.37,333.62,23.12ZM332,98.67v-14h7.55v35H332v-14.5H318.32v14.5h-7.6v-35h7.6v14Zm-41.2-85.35h25.5v6.6H298.32v7.7h16v5.85h-16v8.25h18.15v6.6h-25.7Zm-33.85,0h14.7c8.45,0,12.35,3.95,12.35,9.4,0,3.65-2,6.05-5.25,7.45,3.85,1.25,6.55,3.85,6.55,8.15,0,6.45-5,10-12.95,10h-15.4Zm-35.55-.6c10.65,0,18.15,7.5,18.15,18s-7.5,18.2-18.15,18.2-18.15-7.6-18.15-18.2S210.77,12.72,221.37,12.72Zm-30.8,101.1c4.2,0,7.15-2.7,7.15-7.45V84.67h7.6v21.7c0,9.35-6.15,13.9-14.75,13.9s-14.8-4.55-14.8-13.9V84.67h7.65v21.7C183.42,111.12,186.32,113.82,190.57,113.82Zm-20.2-100.5h30.7V20h-11.6v28.3h-7.55V20H170.37Zm.1,88.75c0,10.6-7.5,18.2-18.15,18.2s-18.15-7.6-18.15-18.2,7.55-18,18.15-18S170.47,91.57,170.47,102.07Zm-57.9-88.75,7.3,24.2h.1l7-24.2h6.9l7,24.2h.1l7.3-24.2h7.9l-11,35h-7.75l-6.85-23.75h-.1l-6.9,23.75h-7.75l-11-35Zm-27.9-.6c10.65,0,18.15,7.5,18.15,18s-7.5,18.2-18.15,18.2-18.15-7.6-18.15-18.2S74.07,12.72,84.67,12.72Zm-52.4.6h7.6v14H53.52v-14h7.55v35H53.52V33.82H39.87v14.5h-7.6ZM21.87,94.47c0-5.75,4.75-10.4,12.85-10.4a28.83,28.83,0,0,1,12.6,3l-2.8,6a21.2,21.2,0,0,0-9.45-2.3c-3.35,0-5.35,1.6-5.35,3.7,0,6.45,18.9,1.9,18.9,15.4,0,5.9-4.5,10.5-13.5,10.5a28,28,0,0,1-13.95-3.85l3.6-5.9a20.85,20.85,0,0,0,10.3,3.15c3.75,0,5.7-1.55,5.7-3.8C40.77,103.32,21.87,107.72,21.87,94.47ZM18.92,22.32c0-5.2,2.1-7.85,6.45-9.3l1.5,2.8c-2.4.9-3.65,2.6-3.65,4.7h3.3v7.65h-7.6Zm-11.65,0c0-5.2,2.1-7.85,6.45-9.3l1.5,2.8c-2.4.9-3.65,2.6-3.65,4.7h3.3v7.65H7.27Zm8.65,62.35v35H8.32v-35Zm21,78.06H25.32V191H17.77v-28.3H6.22V156h30.7ZM70.37,191H62.82v-14.5H49.17V191h-7.6V156h7.6v14H62.82V156h7.55Zm1.4-71.36H63.62l12.65-35h8.6l12.65,35h-8.1l-2.2-6.55H73.92ZM102.87,191H77.17V156h25.5v6.6h-18v7.7h16v5.85h-16v8.25h18.15Zm-1.05-71.36v-35h14.7c8.45,0,12.35,4,12.35,9.4,0,3.65-2,6.05-5.25,7.45,3.85,1.25,6.55,3.85,6.55,8.15,0,6.45-5,10-12.95,10ZM151.12,191l-6.85-23.75h-.1L137.27,191h-7.75l-11-35h7.9l7.3,24.2h.1l7-24.2h6.9l7,24.2h.1L162,156h7.9l-11,35Zm44.1,0-2.2-6.55h-13.3L177.57,191h-8.15l12.65-35h8.6l12.65,35ZM221.12,177V191h-7.65V177L200.37,156h8.75l8.15,13.5h.1l8.2-13.5h8.65Zm19.45-85.61H229v28.3h-7.55V91.37H209.87v-6.7h30.7Zm38.25,71.36h-11.6V191h-7.55v-28.3H248.12V156h30.7Zm1.7-66.81-6.9,23.75h-7.75l-11-35h7.9l7.3,24.2h.1l6.95-24.2H284l7,24.2h.1l7.3-24.2h7.9l-11,35h-7.75l-6.85-23.75ZM312.27,191h-7.55v-14.5H291.07V191h-7.6V156h7.6v14h13.65V156h7.55Zm30.05,0-2.2-6.55h-13.3L324.67,191h-8.15l12.65-35h8.6l12.65,35Zm37.3-28.3H368V191h-7.55v-28.3H348.92V156h30.7Zm6.7-121H373l-2.15,6.55h-8.15l12.65-35H384l12.65,35h-8.1Zm7.1,42.9H401v35h-7.6ZM403.82,191h-7.6V156h7.6Zm-2.9-142.71v-35h11.5c12.5,0,19.25,6.45,19.25,17.35,0,11.15-6.3,17.65-19.25,17.65Zm28.9,36.35h8.6l12.65,35H443l-2.2-6.55h-13.3l-2.15,6.55h-8.15ZM445.77,191l-2.2-6.55h-13.3L428.12,191H420l12.65-35h8.6l12.65,35Zm9.1-171.86c0,5.2-2.1,7.85-6.45,9.3l-1.5-2.8c2.4-.9,3.65-2.6,3.65-4.7h-3.3V13.32h7.6Zm.5,65.5H463l10.55,15,10.6-15h7.5v35h-7.2V95.47l-10.95,15.1-10.9-15.1v24.2h-7.2ZM494.42,191h-7.2v-24.2l-11,15.1-10.9-15.1V191h-7.2V156h7.6L476.32,171,486.92,156h7.5Zm13.35,0h-7.6v-7.65h7.6Z"/>
      <path class="about-header3" d="M276.37,23.57c0-2.45-1.8-4.2-5.35-4.2h-6.6v8.55H271C274.57,27.92,276.37,26.17,276.37,23.57Z"/>
      <path class="about-header4" d="M141.87,102.07c0,7.15,4.35,11.8,10.45,11.8s10.5-4.65,10.5-11.8c0-7-4.3-11.65-10.5-11.65S141.87,95.07,141.87,102.07Z"/>
      <path class="about-header5" d="M84.67,42.52c6.15,0,10.5-4.65,10.5-11.8s-4.3-11.65-10.5-11.65S74.22,23.72,74.22,30.72,78.57,42.52,84.67,42.52Z"/>
      <text stroke-width='1.5' class="about-header6" transform="translate(5.02 48.27)">“H<tspan class="about-header7" x="59.55" y="0">O</tspan>
        <tspan x="98.65" y="0">W </tspan>
        <tspan class="about-header8" x="164.15" y="0">T</tspan>
        <tspan x="196.25" y="0">O BE </tspan>
        <tspan class="about-header9" x="326.1" y="0">S</tspan>
        <tspan x="356.95" y="0">A</tspan>
        <tspan class="cls-20" x="392.6" y="0">D</tspan>
        <tspan x="428.35" y="0">”</tspan>
        <tspan x="0" y="71.36">IS A</tspan>
        <tspan class="cls-21" x="93.5" y="71.36">B</tspan>
        <tspan x="127.2" y="71.36">OUT WHY I AM</tspan>
        <tspan x="0" y="142.71">THE </tspan>
        <tspan class="cls-22" x="112.5" y="142.71">W</tspan>
        <tspan class="cls-23" x="163.65" y="142.71">A</tspan>
        <tspan x="194.8" y="142.71">Y TH</tspan>
        <tspan class="cls-24" x="310.75" y="142.71">A</tspan>
        <tspan x="342.7" y="142.71">T I AM.</tspan>
      </text>
    </g>
  </g>
</svg>