<svg xmlns="http://www.w3.org/2000/svg" viewBox="0 0 1148.17 218.78"><defs><style>.cls-1{fill:none;stroke:#fff;stroke-linecap:round;stroke-linejoin:round;stroke-width:10px;}</style></defs><title>box</title><g id="Layer_2" data-name="Layer 2"><g id="Layer_1-2" data-name="Layer 1"><path class="cls-1" d="M35.93,24.39l436-13.16,87.48-2.64C651.21,5.81,743.19,3,835,6.9c34.19,1.43,68.31,3.79,102.42,6.14l39.51,2.73L1141,27.09a398.66,398.66,0,0,1-2.5,102.7c-2.93,18.93-8.68,39.7-27.28,50.5-11.64,6.75-26.28,8.32-40.3,9.65-319.46,30.33-646.14,39.93-959.37-21.22-34.78-6.79-70.68-14.48-105.73-8.78a471.69,471.69,0,0,1,6.25-108.7"/></g></g></svg>