<svg xmlns="http://www.w3.org/2000/svg" viewBox="0 0 2278.11 188.73" class="chatper-copy">
  <defs>
    <style>.callout-1{stroke:#000;stroke-miterlimit:10;}.callout-2{fill:#fff;}</style>
  </defs>
  <g id="Layer_2" data-name="Layer 2">
    <g id="Layer_1-2" data-name="Layer 1">
      <polygon class="callout-1" points="349.87 104.69 387.07 104.69 368.81 49.73 349.87 104.69"/>
      <path class="callout-1" d="M1638.59,50.4H1624V94.14l14.61-.22c18.72-.22,27.62-8.08,27.62-22.21S1656.85,50.4,1638.59,50.4Z"/>
      <polygon class="callout-1" points="1481.55 104.69 1518.76 104.69 1500.5 49.73 1481.55 104.69"/>
      <path class="callout-1" d="M508.27,50.62H493.21v83.23H510.1c26.25,0,42.69-13.24,42.69-41.28C552.79,63.64,538,50.62,508.27,50.62Z"/>
      <path class="callout-1" d="M.5.5V188.23H2277.61V.5ZM121.85,162.34,93.31,115.23l-16.66,1.35v45.76H40.35V22.13h57.3c37.89,0,57.75,17.28,57.75,44.42,0,18.84-10,33.2-29.21,40.38l36.52,55.41ZM285.51,50.85H216.8V77.77H272v28.49H216.8v27.36h68.71v28.72H181.19V22.13H285.51ZM405.57,162.34,395.06,132.5h-53l-10.27,29.84H295.76L346.44,22.13h45.43l49.77,140.21Zm102.48,0H456.91V22.13h53.65c50.22,0,78.75,27.37,78.75,69.1C589.31,134.3,560.32,162.34,508.05,162.34ZM781.73,52H736.3V162.34H700V52H654.58V22.13H781.73Zm150,110.37H895.4V106.71H838.1v55.63H801.81V22.13H838.1V76.64h57.3V22.13h36.3Zm134-111.49H997V77.77h55.24v28.49H997v27.36h68.71v28.72H961.36V22.13h104.32Zm148.13,84.57A69.55,69.55,0,0,0,1251.48,124l7.53,31.63c-11.19,6.06-30.13,10.09-46.8,10.09-45.65,0-75.79-25.8-75.79-72.9,0-45.32,29.91-74,76.94-74a111.53,111.53,0,0,1,47.24,10.54l-10.95,29.84a72,72,0,0,0-36.07-10.1c-24.65,0-40.63,16.38-40.63,42.85C1173,118.59,1188,135.42,1213.81,135.42Zm198.36,26.92h-36.3V106.71h-57.3v55.63h-36.29V22.13h36.29V76.64h57.3V22.13h36.3Zm125.08,0-10.5-29.84h-53l-10.28,29.84h-36.06l50.67-140.21h45.43l49.77,140.21Zm101.56-40.83-13.92.23v40.6H1588.6V22.13h52.73c39.94,0,61,19.74,61,48.68C1702.28,103.56,1679.67,121.51,1638.81,121.51ZM1841.52,52h-45.43V162.34h-36.3V52h-45.42V22.13h127.15Zm124.39-1.12h-68.72V77.77h55.25v28.49h-55.25v27.36h68.72v28.72H1861.59V22.13h104.32ZM2072,162.34l-28.53-47.11-16.67,1.35v45.76h-36.29V22.13h57.3c37.89,0,57.75,17.28,57.75,44.42,0,18.84-10,33.2-29.22,40.38l36.52,55.41Zm107.28,3.36c-21.24,0-41.78-5.38-55-12.78l6.85-29.62c14.15,7.41,31.27,13,48.85,13,12.79,0,21.68-4.71,21.68-13.24,0-9.42-10.26-12.56-29.22-17.72-20.77-5.61-45.88-15-45.88-43.07,0-26,19.41-43.3,54.79-43.3,22.37,0,39.72,4.94,53.42,12.34l-7.08,29.39c-14.16-7.4-32-12.34-46.11-12.34-12.56,0-18.72,4.26-18.72,11.89,0,9.2,13,12.78,30.13,17.5,21.91,5.83,44.75,15.7,44.75,42.4S2216.75,165.7,2179.32,165.7Z"/>
      <path class="callout-1" d="M91.26,50.4H76V90.11l18.27-.45c15.52-1.13,24-7.41,24-20.87C118.2,56.46,109.52,50.4,91.26,50.4Z"/>
      <path class="callout-1" d="M2041.45,50.4h-15.3V90.11l18.27-.45c15.52-1.13,24-7.41,24-20.87C2068.39,56.46,2059.71,50.4,2041.45,50.4Z"/>
      <g id="DROPDOWN">
        <path class="callout-2" d="M165.36,163.28H120.55L92.06,116.34,77.9,117.48v45.8H38.34V20.09h59c37.73,0,59.37,16.75,59.37,46,0,19-10.06,33.55-28.38,41.08Zm-43-3.26H159.3l-36-54.48,1.92-.72c18.42-6.88,28.16-20.29,28.16-38.77,0-27.14-20.46-42.7-56.13-42.7H41.6V160h33V114.48l19.17-1.55ZM74,91.23V48.3H90.88c19,0,28.57,6.72,28.57,20,0,13.87-8.34,21.21-25.48,22.45h-.08Zm3.27-39.67V87.89l16.55-.41c15.29-1.11,22.42-7.21,22.42-19.19,0-7.18-2.63-16.73-25.31-16.73Z"/>
        <path class="callout-2" d="M286.76,163.28H179.18V20.09H286.76V52H218.05v23.6h55.24v31.7H218.05v24.05h68.71ZM182.44,160H283.5v-25.4H214.79V104.05H270V78.88H214.79V48.74H283.5V23.35H182.44Z"/>
        <path class="callout-2" d="M443.56,163.28H404l-10.5-29.77H342.89l-10.28,29.77H293.06L344.92,20.09h47.72ZM406.34,160H439L390.34,23.35H347.21L297.71,160h32.58l10.27-29.77h55.28ZM389,105.74H347.2l21.26-61.56Zm-37.18-3.26h32.65l-16-48.15Z"/>
        <path class="callout-2" d="M507.67,163.28H454.9V20.09h55.28c49.58,0,80.38,27,80.38,70.59C590.56,136.14,559.57,163.28,507.67,163.28ZM458.17,160h49.5c49.86,0,79.63-25.92,79.63-69.34,0-42.16-28.83-67.33-77.12-67.33h-52Zm51.55-25.17H491.2V48.52h16.7C539,48.52,554,62.75,554,92,554,119.64,538.3,134.85,509.72,134.85Zm-15.26-3.26h15.26c26.86,0,41.06-13.68,41.06-39.57,0-27.45-13.63-40.24-42.88-40.24H494.46Z"/>
        <path class="callout-2" d="M737.56,163.28H698V53.13H652.57v-33H783v33H737.56ZM701.26,160h33V49.87h45.43V23.35H655.83V49.87h45.43Z"/>
        <path class="callout-2" d="M933,163.28H893.39V107.76h-54v55.52H799.8V20.09h39.55v54.4h54V20.09H933ZM896.65,160h33V23.35h-33v54.4H836.09V23.35h-33V160h33V104.5h60.56Z"/>
        <path class="callout-2" d="M1066.93,163.28H959.35V20.09h107.58V52H998.22v23.6h55.24v31.7H998.22v24.05h68.71ZM962.61,160h101.06v-25.4H995V104.05h55.24V78.88H995V48.74h68.71V23.35H962.61Z"/>
        <path class="callout-2" d="M1211.83,166.64c-48.47,0-77.42-27.81-77.42-74.39,0-45.88,30.84-75.52,78.57-75.52a112.61,112.61,0,0,1,48,10.68l1.34.64-12.14,33-1.68-1a70.09,70.09,0,0,0-35.25-9.85c-24.06,0-39,15.76-39,41.13,0,26.18,14.67,41.81,39.23,41.81A67.66,67.66,0,0,0,1250.21,122l1.94-1.25,8.35,35-1.1.6C1248,162.51,1228.92,166.64,1211.83,166.64ZM1213,20c-46.45,0-75.3,27.69-75.3,72.26s27.72,71.13,74.15,71.13c16.05,0,33.88-3.71,44.92-9.3L1250,126a70.64,70.64,0,0,1-36.61,10.47c-26.21,0-42.49-17.27-42.49-45.07,0-27,16.59-44.39,42.26-44.39a73.11,73.11,0,0,1,35.21,9.34l9.77-26.58A111.28,111.28,0,0,0,1213,20Z"/>
        <path class="callout-2" d="M1413.42,163.28h-39.55V107.76h-54v55.52h-39.56V20.09h39.56v54.4h54V20.09h39.55ZM1377.13,160h33V23.35h-33v54.4h-60.56V23.35h-33V160h33V104.5h60.56Z"/>
        <path class="callout-2" d="M1575.25,163.28h-39.53l-10.5-29.77h-50.65l-10.27,29.77h-39.55L1476.6,20.09h47.73l.38,1.08ZM1538,160h32.6L1522,23.35h-43.13L1429.4,160H1462l10.27-29.77h55.28Zm-17.39-54.28h-41.75l21.26-61.56Zm-37.18-3.26h32.66l-16-48.15Z"/>
        <path class="callout-2" d="M1626.15,163.28h-39.56V20.09H1641c39.19,0,62.58,18.77,62.58,50.22,0,33.67-23.11,52.22-65.08,52.22l-12.3.2Zm-36.3-3.26h33v-40.5l15.56-.25c39.87,0,61.83-17.39,61.83-49,0-29.41-22.18-47-59.32-47h-51.1ZM1622,95.24V48.3h16.24c24.18,0,29.26,12.45,29.26,22.9,0,10.69-5.07,23.51-29.24,23.79Zm3.26-43.68V91.93l13-.2c17.51-.2,26-6.92,26-20.53,0-13.22-8.5-19.64-26-19.64Z"/>
        <path class="callout-2" d="M1797.34,163.28h-39.56V53.13h-45.42v-33h130.41v33h-45.43ZM1761,160h33V49.87h45.43V23.35H1715.62V49.87H1761Z"/>
        <path class="callout-2" d="M1967.16,163.28H1859.58V20.09h107.58V52h-68.71v23.6h55.25v31.7h-55.25v24.05h68.71ZM1862.84,160H1963.9v-25.4h-68.71V104.05h55.25V78.88h-55.25V48.74h68.71V23.35H1862.84Z"/>
        <path class="callout-2" d="M2115.56,163.28h-44.81l-28.49-46.94-14.16,1.14v45.8h-39.56V20.09h59c37.73,0,59.36,16.75,59.36,46,0,19-10,33.55-28.38,41.08Zm-43-3.26h36.91l-36-54.48,1.92-.72c18.42-6.88,28.16-20.29,28.16-38.77,0-27.14-20.46-42.7-56.12-42.7H1991.8V160h33V114.48l19.17-1.55Zm-48.43-68.79V48.3h16.93c19,0,28.57,6.72,28.57,20,0,13.87-8.34,21.21-25.49,22.45h-.08Zm3.26-39.67V87.89l16.56-.41c15.29-1.11,22.41-7.21,22.41-19.19,0-7.18-2.62-16.73-25.3-16.73Z"/>
        <path class="callout-2" d="M2178.94,166.64c-20.09,0-41.48-5-55.82-13l-1.07-.6,7.61-32.8,1.87,1c11.18,5.84,28.6,12.8,48.09,12.8,9.69,0,20.06-3,20.06-11.58,0-8.12-9.61-11.11-28-16.11-23.28-6.28-47.08-16.48-47.08-44.57S2145.66,17,2181,17c20.57,0,38.8,4.2,54.2,12.5l1.1.6-7.86,32.58-1.85-1c-14.33-7.49-31.71-12.14-45.36-12.14-11.34,0-17.09,3.45-17.09,10.24,0,7.94,12.77,11.45,28.94,15.89,21.38,5.68,45.94,15.81,45.94,43.89C2239,148.6,2216,166.64,2178.94,166.64Zm-53.15-15.23c13.86,7.4,34.07,12,53.15,12,35,0,56.81-16.79,56.81-43.82,0-25.71-22-35-43.54-40.74-17.51-4.81-31.34-8.61-31.34-19,0-6.16,3.53-13.5,20.35-13.5,13.55,0,30.61,4.4,45,11.56l6.3-26.1c-14.68-7.65-32-11.52-51.54-11.52-33.28,0-53.15,15.54-53.15,41.57s22.58,35.47,44.67,41.42c18.33,5,30.43,8.26,30.43,19.26,0,9.15-8.94,14.84-23.32,14.84-19.09,0-36.2-6.43-47.73-12.21Z"/>
      </g>
    </g>
  </g>
</svg>