<?xml version="1.0" encoding="utf-8"?>
<!-- Generator: Adobe Illustrator 23.0.4, SVG Export Plug-In . SVG Version: 6.00 Build 0)  -->
<svg version="1.1" id="Layer_1" xmlns="http://www.w3.org/2000/svg" xmlns:xlink="http://www.w3.org/1999/xlink" x="0px" y="0px"
	 viewBox="0 0 402.2 387" style="enable-background:new 0 0 402.2 387;" xml:space="preserve">
<style type="text/css">
	.circle{fill:none;stroke:#FFFFFF;stroke-width:9;stroke-linecap:round;stroke-linejoin:round;}
</style>
<title>circle</title>
<g>
	<g id="Layer_1-2">
		<path class="circle" data-order="2" d="M99,166.5c-1.1-13.8-2.2-28.1,2.9-40.9c3.8-9.8,10.9-17.9,18.3-25.3c26.8-26.6,59.7-46.1,95.9-56.9
			c12.4-3.7,25.7-6.3,38.3-3.4c15.2,3.5,27.5,14.5,38,26.1c25.1,27.5,44.2,60,59,94.2c7.4,17.2,13.9,35.4,12.6,54.1
			c-1.2,18.3-9.7,35.3-18.3,51.5c-13,24.4-26.7,48.5-44.2,69.9c-11.2,13.8-24.1,26.5-39.6,35.3s-33.7,13.5-51.2,10.7
			c-14.3-2.3-27.4-9.3-39.9-16.8c-18.8-11.4-36.7-24.1-53.7-38.1c-12.5-10.3-24.6-21.6-32-36c-13.2-25.5-9.4-56.4-1.4-84
			C106.6,128.2,162.5,59.8,235,21.8c28.6-15,64.4-25.2,92.5-9.1c12,6.8,21.1,17.7,28.6,29.2c9,13.7,16.3,29,17.9,45.3
			c2.1,23-7.2,45.4-16,66.7c-19,46.1-36.6,94.2-70.2,131.1c-60.6,66.4-159.5,81.2-236.8,35.4c-14-8.3-27.2-18.7-35.4-32.7
			C7.6,274,5,257.8,4.6,242c-0.7-28.9,5.5-57.6,18.2-83.6c8.4-17.2,19.9-33.3,35.7-44.2c17.1-11.9,38.1-16.8,58.6-20.7
			c25.3-4.8,50.8-8.3,76.5-10.6c12.9-1.2,27.3-1.6,37.2,6.8"/>
		<path class="circle" data-order="1" d="M390,211.7c10.4,8.2,8.3,24.3,5.2,37.2c-3.5,14.8-7.2,30-15.3,42.9c-9.9,15.8-25.6,26.9-41.5,36.6
			c-13.1,8-26.9,15.3-41.7,19.4c-47.2,13.1-98.4-8.4-134.4-41.7c-29.1-26.9-51.4-62.2-58.5-101.2s2.1-81.6,28.1-111.5
			c24.3-27.9,60-42.4,93.4-58.2C246.7,25.1,268,14,291.2,10.4c21.4-3.4,43.3-0.3,64.3,5.1c10.8,2.8,22.5,7,27.6,16.9
			c3,5.7,3.1,12.5,3.2,19c0.6,42.8,1.1,86.6-13.1,127c-21.1,59.9-72.5,105-129.3,133.5c-17.3,8.7-35.4,16.1-54.4,19.2
			c-17.2,2.8-34.8,2-51.9-0.8c-23.7-3.8-47-11.5-67.3-24.2c-11.3-7.1-22-16.1-27.7-28.1c-6.3-13-6.2-28.2-4.3-42.6
			c8.8-66.6,56-126.8,118.6-151.2"/>
	</g>
</g>
</svg>
