<?xml version="1.0" encoding="utf-8"?>
<!-- Generator: Adobe Illustrator 23.0.4, SVG Export Plug-In . SVG Version: 6.00 Build 0)  -->
<svg version="1.1" id="Layer_1" xmlns="http://www.w3.org/2000/svg" xmlns:xlink="http://www.w3.org/1999/xlink" x="0px" y="0px"
	 viewBox="0 0 70.6 83.5" style="enable-background:new 0 0 70.6 83.5;" xml:space="preserve">
<style type="text/css">
	.exclaim{fill:none;stroke:#000000;stroke-width:7;stroke-linecap:round;stroke-linejoin:round;}
</style>
<title>exclaim</title>
<g>
	<g id="Layer_1-2">
		<path class="exclaim" data-order="2" d="M30,76.9c-1.3,1.2-2.8,2.1-4.5,2.5c0.9-0.8,2-1.2,3.2-1.1c1.2,0.2,1.4,1.7,0.2,1.7"/>
		<path class="exclaim" data-order="1" d="M3.5,38l7.8,21c1.1,3,3.3,6.7,8,6.8"/>
		<path class="exclaim" data-order="4" d="M44.4,64c0.6-0.5,1.4-0.7,2.2-0.5l2.1,4c-1.6,0.8-3.4,1.1-5.1,0.7"/>
		<path class="exclaim" data-order="3" d="M20.6,24.5l14.8,22.8"/>
		<path class="exclaim" data-order="6" d="M65.4,57.5c0.8,0.1,1.5,0.8,1.7,1.6l-2.4,2.3c-0.4-1-0.3-2.2,0.2-3.1l2.2-0.1"/>
		<path class="exclaim" data-order="5" d="M38.7,3.5c10,8.9,10.8,25,20.3,34.5"/>
	</g>
</g>
</svg>
