<svg xmlns="http://www.w3.org/2000/svg" viewBox="0 0 264.05 99.4">
  <defs>
    <style>.head{fill:none;stroke:#fff;stroke-linecap:round;stroke-miterlimit:10;stroke-width:2px;}</style>
  </defs>
    <path class="head head-scribble" d="M68.71,70.67,64,47.42c-.59-2.93-1.35-6.13-3.75-7.9a6.31,6.31,0,0,0-8.46,1.27A7.18,7.18,0,0,1,50,43c-1.29.73-2.9,0-4.2-.68a238.21,238.21,0,0,1-25-15.67,34.85,34.85,0,0,0,4.63,14.62"/>
    <path class="head head-scribble" d="M81.78,69.11c-5.38.39-10.41-2.38-15.33-4.58a78.83,78.83,0,0,0-29.8-6.8,3.51,3.51,0,0,0-1.85.3,3.1,3.1,0,0,0-1.15,1.57A13.24,13.24,0,0,0,33.37,69,80,80,0,0,0,2,55.79"/>
    <path class="head head-scribble" d="M163.8,47.2V36.85a4.38,4.38,0,0,1,.77-3.05,3.86,3.86,0,0,1,2.13-.95,16.82,16.82,0,0,1,8.36.54c1,.33,2.31.64,2.86-.23a2.2,2.2,0,0,0,.25-.95c1.11-10,1.75-20.12,1.92-30.21"/>
    <path class="head head-scribble" d="M190.07,55.09c6.16-2.85,12.21-6,18.1-9.35q-9-.2-18-.44a125.53,125.53,0,0,1,42.71-30.24"/>
    <path class="head head-scribble" d="M206,97.4c.94-6.83,5.35-12.84,10.86-17s12.09-6.64,18.68-8.66a3.18,3.18,0,0,1,1.82-.18c1.11.33,1.51,1.66,1.72,2.8a81.11,81.11,0,0,1,1.17,18.47,1.94,1.94,0,0,1-.4,1.3,2,2,0,0,1-.92.4c-2.78.6-6.06.36-7.92-1.8-2.2-2.56-1.27-6.77,1.17-9.11s5.92-3.19,9.26-3.68c6.91-1,14.17-.84,20.62,1.84"/>
</svg>