<svg xmlns="http://www.w3.org/2000/svg" viewBox="0 0 667.82 50.98">
  <title>new memoir</title>
  <g id="Layer_2" data-name="Layer 2">
    <g id="Layer_2-2" data-name="Layer 2">
      <polygon points="387.73 37.65 372.47 16.55 372.47 50.39 403.06 50.39 403.06 16.55 387.73 37.65"/>
      <polygon points="273.63 13.15 267.12 33.03 280.35 33.03 273.77 13.15 273.63 13.15"/>
      <polygon points="264.46 41.21 261.46 50.39 286.16 50.39 283.08 41.21 264.46 41.21"/>
      <polygon points="23.59 13.15 17.08 33.03 30.31 33.03 23.73 13.15 23.59 13.15"/>
      <polygon points="14.42 41.22 11.42 50.39 36.12 50.39 33 41.22 14.42 41.22"/>
      <path d="M102.55,25.78C102.55,16.19,97,10,87.08,10h-6.3V41.78h6.3C97.37,41.78,102.55,35.69,102.55,25.78Z"/>
      <polygon points="492.38 37.65 477.12 16.55 477.12 50.39 507.71 50.39 507.71 16.55 492.38 37.65"/>
      <path d="M550.83,9.44c-8.7,0-14.64,6.51-14.64,16.31,0,10,6.1,16.52,14.64,16.52s14.7-6.51,14.7-16.52C565.53,16,559.53,9.44,550.83,9.44Z"/>
      <path d="M0,0V50.39H0l17.71-49h12l17.72,49H70.21v-49h16.1c17.5,0,27,9,27,24.29,0,15.52-8.73,24.6-26.64,24.71h34.15v-49h10.64v49h25.83C146,47.61,139,38.17,139,25.61,139,11.47,149,.55,164.57.55a29.37,29.37,0,0,1,18.06,6l-5.53,7.14a20.62,20.62,0,0,0-12.25-4.14c-9.17,0-15,6.79-15,16.1,0,10.15,5.6,16.66,15,16.66a17.08,17.08,0,0,0,8.54-2.1v-9.8H162.33V23.16h20.72V45.55a31.34,31.34,0,0,1-10.81,4.84h19.91v-49h10.64v49h22.68V10.77H209.3V1.39h43v9.38H236V50.39h14l17.75-49h12l17.71,49h6.06v-49h10.64V41.22h24.36v9.17h23.87v-49H373l14.8,20.93L402.64,1.39h10.5v49h9.5l0-49h35.7v9.24H433.23V21.41h22.4V29.6h-22.4V41.15h25.41v9.24H467v-49h10.65l14.77,20.93L507.29,1.39h10.5v49h26.05c-11.1-2.8-18.43-12.29-18.43-24.64C525.41,11,536,.55,550.83.55s25.41,10.5,25.41,25.2c0,12.28-7.33,21.83-18.44,24.64h26.06v-49H594.5v49H604v-49h21.56c14,0,18.84,7.7,18.84,15.54a14.12,14.12,0,0,1-9,13.51l9.36,20h23.06V0Z"/>
      <polygon points="614.59 50.39 633.34 50.39 625.79 32.16 614.59 32.16 614.59 50.39"/>
      <path d="M633.76,17.11c0-4.13-2.81-7.21-8.27-7.21h-10.9V24.35l10.83,0C631,24.39,633.76,21.24,633.76,17.11Z"/>
    </g>
    <g id="Layer_1-2" data-name="Layer 1" class="title-svg-text">
      <g data-name="Layer 1-2" ref="copyPaths" id="copyPaths">
        <path d="M17.72,1.13h12l17.72,49H36.13L33,41H14.43l-3,9.18H0Zm-.63,31.64H30.32L23.74,12.89H23.6Z"/>
        <path d="M70.22,1.13h16.1c17.5,0,27,9,27,24.29,0,15.61-8.82,24.72-26.95,24.72H70.22ZM87.09,41.52c10.29,0,15.47-6.09,15.47-16,0-9.59-5.53-15.75-15.47-15.75h-6.3V41.52Z"/>
        <path d="M120.83,1.13h10.64v49H120.83Z"/>
        <path d="M164.58.29a29.53,29.53,0,0,1,18.06,6l-5.53,7.14a20.75,20.75,0,0,0-12.25-4.14c-9.17,0-15,6.79-15,16.1,0,10.15,5.6,16.66,15,16.66A17,17,0,0,0,173.4,40v-9.8H162.34V22.9h20.72V45.29A31.18,31.18,0,0,1,164.51,51C149,51,139,40.4,139,25.35,139,11.21,149,.29,164.58.29Z"/>
        <path d="M192.15,1.13h10.64v49H192.15Z"/>
        <path d="M225.48,10.51H209.31V1.13h43v9.38H236V50.14H225.48Z"/>
        <path d="M267.76,1.13h12l17.7,49H286.17L283.09,41H264.46l-3,9.18H250Zm-.64,31.64h13.24l-6.59-19.88h-.14Z"/>
        <path d="M303.52,1.13h10.65V41h24.36v9.18h-35Z"/>
        <path d="M362.4,1.13H373L387.8,22.06,402.65,1.13h10.5v49H403.07V16.29l-15.33,21.1-15.26-21.1V50.14H362.4Z"/>
        <path d="M422.67,1.13h35.7v9.24H433.24V21.15h22.4v8.19h-22.4V40.89h25.41v9.25h-36Z"/>
        <path d="M467,1.13h10.64l14.77,20.93L507.3,1.13h10.5v49H507.71V16.29l-15.32,21.1-15.27-21.1V50.14H467Z"/>
        <path d="M550.84.29c14.9,0,25.4,10.5,25.4,25.2S565.74,51,550.84,51s-25.43-10.69-25.43-25.49S536,.29,550.84.29Zm0,41.72c8.61,0,14.7-6.51,14.7-16.52,0-9.8-6-16.31-14.7-16.31S536.2,15.69,536.2,25.49C536.2,35.5,542.29,42,550.84,42Z"/>
        <path d="M583.86,1.13h10.65v49H583.86Z"/>
        <path d="M604,1.13h21.56c14,0,18.84,7.7,18.84,15.54a14.13,14.13,0,0,1-9,13.51l9.38,20H633.36L625.79,31.9h-11.2V50.14H604Zm21.41,23c5.61,0,8.35-3.15,8.35-7.28S631,9.64,625.49,9.64H614.6V24.09Z"/>
      </g>
    </g>
  </g>
</svg>