<svg xmlns="http://www.w3.org/2000/svg" viewBox="0 0 432.97 33.75">
  <defs>
    <style>.memoir1{fill:none;stroke:#fff;stroke-miterlimit:10;}</style>
  </defs>
  <g id="Layer_2" data-name="Layer 2">
    <g id="Layer_1-2" data-name="Layer 1">
      <path class="memoir1" d="M32.66,32.5h-7.9l-2.3-6.65H10.86L8.61,32.5H.71L11.81,1.25h10ZM16.71,7.4,12.56,19.65h8.15Z"/>
      <path class="memoir1" d="M58.61,32.5H47.41V1.25H59.16c11,0,17.25,6.1,17.25,15.4C76.41,26.25,70.06,32.5,58.61,32.5Zm0-24.9h-3.3V26.15h3.7c5.75,0,9.35-2.95,9.35-9.2C68.41,10.5,65.16,7.6,58.66,7.6Z"/>
      <path class="memoir1" d="M81.51,32.5V1.25h7.95V32.5Z"/>
      <path class="memoir1" d="M111.56,33.25c-10,0-16.8-5.95-16.8-16.25S101.36.5,111.61.5c4,0,8.75.9,11.75,2.7l-2.5,6.65a18,18,0,0,0-9-2.6c-5.6,0-9.2,3.75-9.2,9.55,0,6.25,3.15,10,9.1,10a13.7,13.7,0,0,0,5-.95V21.2h-7.7V14.9H124V30.35A26.54,26.54,0,0,1,111.56,33.25Z"/>
      <path class="memoir1" d="M129.76,32.5V1.25h8V32.5Z"/>
      <path class="memoir1" d="M160.06,7.9V32.5h-7.95V7.9h-10V1.25H170V7.9Z"/>
      <path class="memoir1" d="M199.91,32.5H192l-2.3-6.65h-11.6l-2.25,6.65H168l11.1-31.25H189ZM184,7.4l-4.15,12.25H188Z"/>
      <path class="memoir1" d="M203.26,32.5V1.25h8v24.6h13.1V32.5Z"/>
      <path class="memoir1" d="M269.71,8.4,262.85,32h-8.5L247.5,8.45l-.2,24.05h-7.4L241,1.25h11.25l6.51,23.45,6.5-23.45h11.1l1.05,31.25h-7.55Z"/>
      <path class="memoir1" d="M283.2,32.5V1.25h22.85v6.4H291v6h12.1V20H291v6.1h15.05v6.4Z"/>
      <path class="memoir1" d="M340.5,8.4,333.65,32h-8.5L318.3,8.45l-.2,24.05h-7.4l1.1-31.25h11.25l6.5,23.45,6.5-23.45h11.1l1.06,31.25h-7.56Z"/>
      <path class="memoir1" d="M369,33.25c-9.25,0-16.3-5.75-16.3-16.3C352.7,7.05,359.8.5,369.1.5s16.35,5.7,16.35,16.25C385.45,26.65,378.3,33.25,369,33.25ZM369,6.9c-5.3,0-8.3,4-8.3,9.85s3.1,10.1,8.45,10.1,8.3-4.05,8.3-9.9S374.3,6.9,369,6.9Z"/>
      <path class="memoir1" d="M390.7,32.5V1.25h7.95V32.5Z"/>
      <path class="memoir1" d="M413.2,32.5h-7.95V1.25H417.8c8.3,0,12.65,3.85,12.65,9.9,0,4.2-2.2,7.4-6.4,9l8,12.35H423.1L416.85,22l-3.65.3Zm3.85-16.2c3.4-.25,5.25-1.65,5.25-4.65,0-2.75-1.9-4.1-5.9-4.1h-3.35V16.4Z"/>
    </g>
  </g>
</svg>