<svg xmlns="http://www.w3.org/2000/svg" viewBox="0 0 44.53 75.47">
  <defs>
    <style>.question{fill:none;stroke:#fff;stroke-linecap:round;stroke-linejoin:round;stroke-width:9px;}</style>
  </defs>
  <title>question</title>
  <g id="Layer_2" data-name="Layer 2">
    <g id="Layer_1-2" data-name="Layer 1">
      <path class="question" data-order="1" d="M5,14.64c-1-1.43-.42-3.55.86-4.75a10.54,10.54,0,0,1,4.75-2.16,110.55,110.55,0,0,1,20.93-3.2A4.34,4.34,0,0,1,34.4,5a4.42,4.42,0,0,1,1.39,2.71c1,4.16,1.79,8.67.07,12.58-1.29,2.92-3.81,5.08-6.2,7.2S24.85,32,23.87,35s.07,7,3,8.16"/>
      <path class="question" data-order="2" d="M37.75,63.5a3.92,3.92,0,0,1-2.56,7.37,8,8,0,0,1-.75-6.12"/>
    </g>
  </g>
</svg>