<svg xmlns="http://www.w3.org/2000/svg" viewBox="0 0 367.5 33.25" class="svg-title">
  <defs>
    <style>.title-1{fill:none;stroke:#fff;stroke-miterlimit:10;stroke-width:0.5px;}</style>
  </defs>
  <title>title</title>
  <g id="Layer_2" data-name="Layer 2">
    <g id="Layer_1-2" data-name="Layer 1">
      <path class="title-1" d="M20.75,32.25V19.85H8.2v12.4H.25V1h8V13.15H20.75V1h8V32.25Z"/>
      <path class="title-1" d="M50.2,33C41,33,33.9,27.25,33.9,16.7,33.9,6.8,41,.25,50.3.25S66.65,6,66.65,16.5C66.65,26.4,59.5,33,50.2,33Zm0-26.35c-5.3,0-8.3,4-8.3,9.85S45,26.6,50.35,26.6s8.3-4.05,8.3-9.9S55.5,6.65,50.2,6.65Z"/>
      <path class="title-1" d="M85,32.25H76.7L68.35,1h8.5l4.2,22.1L86.65,1h9.1l5.7,22.1L105.65,1h8.15l-8.35,31.25h-8.3L91.1,10Z"/>
      <path class="title-1" d="M145.35,7.65v24.6H137.4V7.65h-10V1H155.3V7.65Z"/>
      <path class="title-1" d="M174.2,33c-9.25,0-16.3-5.75-16.3-16.3C157.9,6.8,165,.25,174.3.25S190.65,6,190.65,16.5C190.65,26.4,183.5,33,174.2,33Zm0-26.35c-5.3,0-8.3,4-8.3,9.85s3.1,10.1,8.45,10.1,8.3-4.05,8.3-9.9S179.5,6.65,174.2,6.65Z"/>
      <path class="title-1" d="M233.55,23.15c0,5-2.65,9.1-12.65,9.1H207.25V1H220.8c9.3,0,11.8,3.55,11.8,8.15,0,3.55-2.2,5.75-5.8,6.75C230.8,16.65,233.55,19.3,233.55,23.15ZM220.05,7H215v7.2h4.7c3.3,0,5-1.35,5-3.7S223.05,7,220.05,7Zm0,12.15H215v7.2h5.35c3.6,0,5.25-1.15,5.25-3.6C225.55,20.05,223.4,19.1,220.05,19.1Z"/>
      <path class="title-1" d="M238.25,32.25V1H261.1V7.4H246.05v6h12.1v6.35h-12.1v6.1H261.1v6.4Z"/>
      <path class="title-1" d="M293.05,23.5c0-2.1-2.25-2.8-6.4-3.95-4.55-1.25-10-3.35-10-9.6,0-5.8,4.25-9.65,12-9.65a23.78,23.78,0,0,1,11.7,2.75L298.75,9.6a23.22,23.22,0,0,0-10.1-2.75c-2.75,0-4.1,1-4.1,2.65,0,2.05,2.85,2.85,6.6,3.9,4.8,1.3,9.8,3.5,9.8,9.45S296.35,33,288.15,33a25.66,25.66,0,0,1-12-2.85l1.5-6.6a23.23,23.23,0,0,0,10.7,2.9C291.1,26.45,293.05,25.4,293.05,23.5Z"/>
      <path class="title-1" d="M334.9,32.25H327l-2.3-6.65H313.1l-2.25,6.65H303L314.05,1H324ZM319,7.15,314.8,19.4H323Z"/>
      <path class="title-1" d="M349.45,32.25h-11.2V1H350c11,0,17.25,6.1,17.25,15.4C367.25,26,360.9,32.25,349.45,32.25Zm.05-24.9h-3.3V25.9h3.7c5.75,0,9.35-2.95,9.35-9.2C359.25,10.25,356,7.35,349.5,7.35Z"/>
    </g>
  </g>
</svg>