<svg xmlns="http://www.w3.org/2000/svg" viewBox="0 0 597.75 50.84">
  <defs>
    <style>.what-1,.what-2,.what-3,.what-5{isolation:isolate;}.what-2,.what-3,.what-4,.what-5{font-size:60px;fill:none;stroke:#fff;font-family:AlrightSans-Bold, Alright Sans;font-weight:700;}.what-2,.what-3,.what-4,.what-5,.what-6{stroke-miterlimit:10;}.what-3{letter-spacing:-0.07em;}.what-5{letter-spacing:-0.06em;}.what-6{fill:#231f20;stroke:#000;}</style>
  </defs>
  <title>what svg</title>
  <g id="Layer_2" data-name="Layer 2" transform="translate(0 -5)">
    <g id="Layer_1-2" data-name="Layer 1">
      <g id="Layer_1-2-2" data-name="Layer 1-2">
        <path d="M267.94,33.23h-9.3V44.09h9.3c4.08,0,6.66-1.86,6.66-5.52S272,33.23,267.94,33.23Z"/>
        <path d="M495.1,16.25c-7.38,0-12.54,5.58-12.54,14,0,8.58,5.22,14.16,12.54,14.16s12.6-5.58,12.6-14.16C507.7,21.83,502.54,16.25,495.1,16.25Z"/>
        <path d="M273,21.65c0-2.94-2.16-5-6.42-5h-7.92V26.87h7.92C270.82,26.87,273,24.77,273,21.65Z"/>
        <path d="M310.24,16.25c-7.38,0-12.54,5.58-12.54,14,0,8.58,5.22,14.16,12.54,14.16s12.6-5.58,12.6-14.16C322.84,21.83,317.68,16.25,310.24,16.25Z"/>
        <path d="M0,5.6V55.47H597.59V5.6ZM53,51.35H43.7l-8.22-28.5h-.12L27,51.35H17.7L4.5,9.35H14l8.76,29h.12l8.34-29H39.5l8.34,29H48l8.76-29h9.48Zm53.16,0h-9.1V34H80.68V51.4H71.56V9.4h9.12V26.2H97.06V9.35h9.06Zm36.06,0-2.64-7.86h-16L121,51.35h-9.78l15.18-42h10.32l15.18,42Zm44.76-34H173v34h-9v-34H150.1v-8h36.84Zm47.82,34-2.64-7.86h-16l-2.58,7.86H203.8l15.2-42h10.3l15.18,42Zm33.36,0H249.64v-42h17.64c10.14,0,14.82,4.74,14.82,11.28,0,4.38-2.4,7.26-6.3,8.94,4.62,1.5,7.86,4.62,7.86,9.78,0,7.74-6.06,12-15.54,12Zm42.12.72c-12.72,0-21.78-9.12-21.78-21.84s9.06-21.6,21.78-21.6,21.78,9,21.78,21.6S323,52.07,310.24,52.07Zm63.6-16.68c0,11.22-7.38,16.68-17.7,16.68s-17.76-5.46-17.76-16.68v-26h9.18v26c0,5.7,3.48,8.94,8.58,8.94s8.58-3.24,8.58-8.94v-26h9.12Zm42.3-18h-14v34h-9.06v-34H379.3v-8h36.84Zm41.52,34h-9.18V34.49L432.76,9.35h10.5L453,25.55h.12L463,9.35h10.38L457.66,34.49Zm37.44.72c-12.72,0-21.78-9.12-21.78-21.84s9.06-21.6,21.78-21.6,21.78,9,21.78,21.6-9,21.8-21.82,21.8Zm63.6-16.68c0,11.22-7.38,16.68-17.7,16.68s-17.76-5.46-17.76-16.68v-26h9.18v26c0,5.7,3.48,8.94,8.58,8.94s8.58-3.24,8.58-8.94v-26h9.12Zm23.46,16h-9V43.49h9ZM581,37.19l-.12,1.14h-6.54a16.13,16.13,0,0,1-.24-2.4c0-9.9,10.8-9.12,10.8-15.48,0-2.82-2.58-4.68-5.94-4.68s-6.3,1.44-9.12,4.14l-5.22-4.86a19.62,19.62,0,0,1,14.52-6.42c8.64,0,14.46,4.2,14.46,11.22C593.62,30.47,581.26,30.47,581,37.19Z"/>
        <polygon points="224.02 19.43 218.44 36.47 229.78 36.47 224.14 19.43 224.02 19.43"/>
        <polygon points="131.44 19.43 125.86 36.47 137.2 36.47 131.56 19.43 131.44 19.43"/>
        <g class="what-1">
          <text class="what-2" transform="translate(3.2 51.5)">WH</text>
          <text class="what-3" transform="translate(110.18 51.5)">A</text>
          <text class="what-4" transform="translate(148.76 51.5)"></text>
          <text class="what-2" transform="translate(148.52 51.5)">T A</text>
          <text class="what-4" transform="translate(245.54 51.5)"></text>
          <text class="what-2" transform="translate(245.54 51.5)">B</text>
          <text class="what-4" transform="translate(286.16 51.5)"></text>
          <text class="what-2" transform="translate(285.98 51.5)">OUT </text>
          <text class="what-5" transform="translate(431.96 51.5)">Y</text>
          <text class="what-4" transform="translate(470.54 51.5)"></text>
          <text class="what-2" transform="translate(470.84 51.5)">OU?</text>
        </g>
      </g>
      <rect class="what-6" x="0.75" y="55.47" width="596.5" height="15.37" fill="#000" />
    </g>
  </g>
</svg>