<svg xmlns="http://www.w3.org/2000/svg" viewBox="0 0 1653.06 199">
  <defs>
    <style>.you{fill:none;stroke:#fff;stroke-width:2px;}</style>
  </defs>
  <title>you</title>
  <g id="Layer_2" data-name="Layer 2">
    <g id="Layer_1-2" data-name="Layer 1">
      <polygon points="666.45 110.39 703.31 110.39 685.22 54.98 666.45 110.39"/>
      <path d="M399.61,137.52c0,6.79,5.43,11.31,13.12,11.31a21.5,21.5,0,0,0,16.28-7V121.69C407.53,124.18,399.61,128.25,399.61,137.52Z"/>
      <path d="M949.11,86.41C934.87,86.41,927.4,98,927.4,116c0,17.87,7.69,29.17,21.94,29.17s21.71-11.3,21.71-29.4C971.05,98.17,963.36,86.41,949.11,86.41Z"/>
      <path d="M822.71,87.77c-7.69,0-12.89,2.94-17.64,7.24v46.36c4.07,2.71,9.5,4.3,16,4.3,14.93,0,23.52-11.76,23.52-29.18C844.64,98.4,837,87.77,822.71,87.77Z"/>
      <path d="M1457.69,86.41C1443.44,86.41,1436,98,1436,116c0,17.87,7.69,29.17,21.93,29.17s21.72-11.3,21.72-29.4C1479.63,98.17,1471.94,86.41,1457.69,86.41Z"/>
      <path d="M0,0V199H1653.06V0ZM189.32,168.51H151.78L124.41,67.87,96.6,168.51H59.28L21.52,27.16H60l19,100,25.33-100h41.16l25.78,100,19-100h36.87Zm159,0H313.46V106.32c0-12.67-5.66-16.74-14.47-16.74-8.15,0-14.93,3.84-19.45,7.92v71H244.71V19l34.83-4.29V77.82C288.81,67.19,301.25,60,315,60c20.81,0,33.25,13.8,33.25,36.19Zm120.52,2c-22.84,2.94-34.15-3.16-38.89-14.7h-.68c-7.47,8.82-15.83,16.06-30.31,16.06-18.09,0-32.11-12.89-32.11-29.17,0-19.91,14.93-36,62.19-37.32v-2c0-11.09-5.65-16.06-18.54-16.06-10.86,0-23.52,4.52-35.74,10.63L367.5,72.39C378.58,66.51,396,60,415.89,60c36.41,0,48.4,16.51,47.95,45.91l-.23,31.21c0,7.24,1.36,7.92,8.6,8.6Zm61.51,1.36c-26,0-40-10.63-38.68-38.22l1.59-40L477.4,90.94l.68-22.16,15.83-5.21.45-24h33.69l-.22,25.1h26.23l-.68,27.37h-28l-1.13,37.77c-.45,9.72,5.2,13.79,13.79,13.79a45.25,45.25,0,0,0,13.8-2.71l4.07,27.13A78.79,78.79,0,0,1,530.32,171.9Zm191.31-3.39-10.4-30.08H658.76l-10.18,30.08H612.85L663.06,27.16h45l49.3,141.35Zm105.15,3.16A78.76,78.76,0,0,1,803,167.38l-32.79,4.52V19l34.83-4.29V74.2C811.63,67.42,821.35,60,834.69,60c26,0,44.78,21.26,44.78,54.73C879.47,149.51,855.27,171.67,826.78,171.67Zm121.88.23c-31.66,0-55.86-19.9-55.86-55.63S918.13,60,950,60c31.66,0,55.63,20.36,55.63,55.64S980.1,171.9,948.66,171.9Zm177.52-5-34.83,4.3v-15.6c-8.14,8.82-20.35,16.28-34.14,16.28-20.59,0-33-13.8-33-36.19V63.35H1059v62.19c0,12.66,5.43,17,14.48,17a26.73,26.73,0,0,0,17.86-7V63.35h34.83Zm67.16,5c-26,0-40-10.63-38.67-38.22l1.58-40-15.83-2.71.68-22.16,15.83-5.21.45-24h33.7l-.23,25.1h26.23l-.67,27.37h-28.05l-1.13,37.77c-.45,9.72,5.2,13.79,13.8,13.79a45.24,45.24,0,0,0,13.79-2.71l4.07,27.13A78.79,78.79,0,0,1,1193.34,171.9Zm168.92-3.39H1327V114.68l-49.3-87.52h38.22L1345.07,83l28.28-55.86h38l-49.08,87.75Zm95,3.39c-31.66,0-55.86-19.9-55.86-55.63S1426.71,60,1458.59,60c31.67,0,55.64,20.36,55.64,55.64S1488.67,171.9,1457.24,171.9Zm177.51-5-34.82,4.3v-15.6c-8.14,8.82-20.36,16.28-34.15,16.28-20.58,0-33-13.8-33-36.19V63.35h34.83v62.19c0,12.66,5.43,17,14.47,17a26.77,26.77,0,0,0,17.87-7V63.35h34.82Z"/>
      <path class="you" d="M96.14,168.28H58.83L21.06,27H59.51l19,100L103.83,27H145l25.78,100,19-99.95h36.86L188.85,168.28H151.32L124,67.65Z"/>
      <path class="you" d="M313,168.28V106.09c0-12.66-5.65-16.73-14.47-16.73-8.14,0-14.93,3.84-19.45,7.91v71H244.26V18.81l34.82-4.3V77.6c9.27-10.63,21.71-17.86,35.5-17.86,20.81,0,33.25,13.79,33.25,36.18v72.36Z"/>
      <path class="you" d="M428.78,155.62c-7.46,8.82-15.83,16-30.3,16-18.09,0-32.11-12.89-32.11-29.17,0-19.9,14.92-35.95,62.18-37.31v-2c0-11.08-5.65-16.05-18.54-16.05-10.85,0-23.52,4.52-35.73,10.63L367,72.17c11.09-5.88,28.5-12.43,48.4-12.43,36.41,0,48.39,16.5,47.94,45.9l-.23,31.21c0,7.23,1.36,7.91,8.6,8.59l-3.4,24.88c-22.84,2.94-34.14-3.17-38.89-14.7Zm-.23-34.15C407.07,124,399.16,128,399.16,137.3c0,6.78,5.42,11.31,13.11,11.31a21.48,21.48,0,0,0,16.28-7Z"/>
      <path class="you" d="M529.86,171.67c-26,0-40-10.63-38.67-38.21l1.58-40-15.83-2.71.68-22.17,15.83-5.2.45-24h33.7l-.23,25.1H553.6l-.67,27.37h-28l-1.13,37.76c-.45,9.73,5.21,13.8,13.8,13.8a45.27,45.27,0,0,0,13.79-2.72l4.07,27.14A78.81,78.81,0,0,1,529.86,171.67Z"/>
      <path class="you" d="M756.9,168.28H721.17l-10.4-30.08H658.3l-10.17,30.08H612.4L662.6,27h45ZM684.76,54.76,666,110.16h36.86Z"/>
      <path class="you" d="M826.32,171.45a78.35,78.35,0,0,1-23.74-4.3l-32.79,4.52V18.81l34.82-4.3V74c6.56-6.78,16.28-14.24,29.63-14.24,26,0,44.77,21.25,44.77,54.72C879,149.29,854.81,171.45,826.32,171.45Zm-4.07-83.9c-7.69,0-12.89,2.94-17.64,7.24v46.35c4.07,2.72,9.5,4.3,16.06,4.3,14.92,0,23.52-11.76,23.52-29.17C844.19,98.18,836.5,87.55,822.25,87.55Z"/>
      <path class="you" d="M948.21,171.67c-31.66,0-55.86-19.9-55.86-55.63s25.33-56.3,57.21-56.3c31.66,0,55.63,20.35,55.63,55.63S979.64,171.67,948.21,171.67Zm.45-85.48c-14.25,0-21.71,11.54-21.71,29.63,0,17.86,7.69,29.17,21.93,29.17s21.71-11.31,21.71-29.4C970.59,98,962.9,86.19,948.66,86.19Z"/>
      <path class="you" d="M1058.56,63.13v62.18c0,12.67,5.42,17,14.47,17a26.68,26.68,0,0,0,17.86-7V63.13h34.83V166.7L1090.89,171v-15.6c-8.14,8.82-20.35,16.28-34.14,16.28-20.58,0-33-13.79-33-36.18V63.13Z"/>
      <path class="you" d="M1192.88,171.67c-26,0-40-10.63-38.67-38.21l1.59-40L1140,90.72l.67-22.17,15.83-5.2.46-24h33.69l-.23,25.1h26.24L1216,91.85h-28l-1.13,37.76c-.46,9.73,5.2,13.8,13.79,13.8a45.16,45.16,0,0,0,13.79-2.72l4.07,27.14A78.81,78.81,0,0,1,1192.88,171.67Z"/>
      <path class="you" d="M1361.8,114.69v53.59h-35.27V114.46L1277.23,27h38.22l29.17,55.85L1372.88,27h38Z"/>
      <path class="you" d="M1456.78,171.67c-31.66,0-55.86-19.9-55.86-55.63s25.33-56.3,57.22-56.3c31.66,0,55.63,20.35,55.63,55.63S1488.21,171.67,1456.78,171.67Zm.45-85.48c-14.24,0-21.71,11.54-21.71,29.63,0,17.86,7.69,29.17,21.94,29.17s21.71-11.31,21.71-29.4C1479.17,98,1471.48,86.19,1457.23,86.19Z"/>
      <path class="you" d="M1567.13,63.13v62.18c0,12.67,5.43,17,14.48,17a26.7,26.7,0,0,0,17.86-7V63.13h34.82V166.7L1599.47,171v-15.6c-8.14,8.82-20.35,16.28-34.15,16.28-20.58,0-33-13.79-33-36.18V63.13Z"/>
    </g>
  </g>
</svg>