<svg xmlns="http://www.w3.org/2000/svg" viewBox="0 0 820 132">
  <g id="Layer_2" data-name="Layer 2">
    <g id="Layer_1-2" data-name="Layer 1">
      <path d="M390.3,40c-12.21,0-20.4,9.16-20.4,22.8,0,13.81,8.19,23.1,20.4,23.1s20.5-9.29,20.5-23.1C410.8,49.16,402.56,40,390.3,40Z"/>
      <path d="M491.9,68.3h-15V85.4h15c6.83,0,10.6-3.09,10.6-8.7C502.5,71.36,498.63,68.3,491.9,68.3Z"/>
      <path d="M499.8,48.5c0-5-3.82-7.9-10.2-7.9H476.9V56.7h12.7C496.08,56.7,499.8,53.71,499.8,48.5Z"/>
      <path d="M773.49,40.8H765V85.2h8.5c13.93,0,21.6-8,21.6-22.4C795.09,49,787,40.8,773.49,40.8Z"/>
      <path d="M0,0V132H820V0ZM70.2,98.5H54.1v-29H27.8v29H11.59v-71H27.8v28H54.1v-28H70.2Zm46.7,1.2c-21.33,0-36.81-15.52-36.81-36.9,0-21.15,15.48-36.51,36.81-36.51,21.66,0,36.8,15,36.8,36.51C153.7,84.52,138.56,99.7,116.9,99.7ZM238,98.5H221.72L208.3,52,194.77,98.5H178.53l-22.32-71h16.86L187.39,75,201,27.49h14.55L229.21,75l14.32-47.48h16.85ZM350.2,41.9H327V98.5H310.9V41.9H287.79V27.49H350.2Zm40.1,57.8c-21.33,0-36.81-15.52-36.81-36.9,0-21.15,15.48-36.51,36.81-36.51,21.67,0,36.8,15,36.8,36.51C427.1,84.52,412,99.7,390.3,99.7Zm101.9-1.2H460.89v-71H490.8C513.54,27.49,516,41,516,46.8c0,6.71-3.25,11.7-9.67,14.83,8,3,12.27,8.62,12.27,16.37C518.6,90.83,508.73,98.5,492.2,98.5Zm88.8,0H528.59v-71h52V41.7H544.69V56.1h32V68.8h-32V84.3H581Zm60.29,1.2c-9.57,0-20.63-3-28.17-7.78l-.41-.26L620.42,79l.43.26c6.73,4,13.95,6.23,20.34,6.23,6.83,0,10.9-2.66,10.9-7.1,0-5-6.32-6.67-13.63-8.57-10.77-2.8-24.17-6.29-24.17-22.23,0-12.55,10.77-21.31,26.2-21.31a58.28,58.28,0,0,1,25.42,6l.45.22-6,12.81-.46-.23a42.14,42.14,0,0,0-18.68-4.54c-6.1,0-10.2,2.77-10.2,6.9,0,4.88,6.21,6.45,13.41,8.27,10.87,2.75,24.39,6.17,24.39,22.53C668.79,91.46,658.25,99.7,641.29,99.7Zm83-1.2-4.41-13.1H694l-4.31,13.1H672.28l.24-.67,25.42-70.34h17.9l.12.33L741.51,98.5Zm48.15,0h-23.5v-71h23.5c24.79,0,39,12.84,39,35.21C811.39,86.12,797.91,98.5,772.39,98.5Z"/>
      <path d="M116.9,40c-12.21,0-20.41,9.16-20.41,22.8,0,13.81,8.2,23.1,20.41,23.1s20.5-9.29,20.5-23.1C137.4,49.16,129.16,40,116.9,40Z"/>
      <polygon points="698.08 72.7 715.6 72.7 706.8 46.09 698.08 72.7"/>
    </g>
  </g>
</svg>